<svg width="316" height="300" viewBox="0 0 316 300" fill="none" xmlns="http://www.w3.org/2000/svg">
<path opacity="0.5" d="M315.913 2.49793L238.727 275.934C238.334 277.176 236.764 277.548 235.848 276.679L184.173 227.652L222.897 90.6232C223.289 89.382 222.112 88.2649 220.804 88.6372L76.3733 125.377L24.9593 76.5976C24.0435 75.7288 24.436 74.2393 25.7442 73.867L313.82 0.512005C315.128 0.263764 316.306 1.38085 315.913 2.49793Z" fill="#00B37E"/>
<path opacity="0.5" d="M184.17 227.649L164.285 298.398C163.892 299.639 162.322 300.011 161.407 299.143L1.01569 147.096C0.0999219 146.227 0.492394 144.737 1.80064 144.365L76.3706 125.375L184.17 227.649Z" fill="#00B37E"/>
<path d="M222.89 90.6207L184.166 227.649L76.3669 125.374L220.797 88.6348C222.105 88.2624 223.283 89.3795 222.89 90.6207Z" fill="#00B37E"/>
</svg>
